<mxfile host="app.diagrams.net" modified="2023-11-20T05:34:36.117Z" agent="Mozilla/5.0 (Macintosh; Intel Mac OS X 10_15_7) AppleWebKit/537.36 (KHTML, like Gecko) Chrome/119.0.0.0 Safari/537.36" version="22.1.3" etag="zf8XPM74Y8TN0eYK0kSr" type="github">
  <diagram name="Page-1" id="2zMFjw1oN3G5vw93tM2V">
    <mxGraphModel>
      <root>
        <mxCell id="0" />
        <mxCell id="1" parent="0" />
      </root>
    </mxGraphModel>
  </diagram>
</mxfile>
